# xmcd CD database file
#
# Track frame offsets:
#	150
#	11285
#	21962
#	33910
#	45601
#	56901
#	70473
#	82615
#	94956
#	105168
#	117430
#	129964
#	142282
#	156213
#	167388
#	178543
#	191772
#	201790
#	211408
#	221055
#	229984
#	240731
#	251978
#	264721
#	275730
#	286287
#	295448
#	306414
#	319378
#	329128
#
# Disc length: 4558 seconds
#
# Revision: 0
# Processed by: cddbd v1.5.2PL0 Copyright (c) Steve Scherf et al.
# Submitted via: CDex 1.70beta1
#
DISCID=d511cc1e
DTITLE=Sharkey Bonano - Sharkey And His Dixieland Kings CD 2
DYEAR=1900
DGENRE=Jazz
TTITLE0=Pick up your troubles
TTITLE1=Banana Peel Rag
TTITLE2=Hungry Woman
TTITLE3=Kidding with Chopin
TTITLE4=North Rampart Street March
TTITLE5=You are my sunshine
TTITLE6=Aufwiedersehn Sweetheart
TTITLE7=Way down yonder in New Orleans
TTITLE8=Ballin the Jack
TTITLE9=My old Kentucky Home
TTITLE10=Five foot two eyes of blue
TTITLE11=How'm I doing
TTITLE12=Dinah
TTITLE13=Bill Bailey wont you please come home
TTITLE14=I ain't gonna give nobody none O'this jelly roll
TTITLE15=Famous door boogie
TTITLE16=Keep it a secret
TTITLE17=Why don't you believe me
TTITLE18=If I had you
TTITLE19=Has anybody seen my Kitty
TTITLE20=Bugle call rag
TTITLE21=Runnin Wild
TTITLE22=A good man is hard to find
TTITLE23=Lizzie's Blues
TTITLE24=Salty Dog
TTITLE25=Darktime strutters ball
TTITLE26=Blue turning grey over you
TTITLE27=Have you ever been lonely
TTITLE28=San Sue Strut
TTITLE29=Look sharp, be sharp
EXTD=
EXTT0=
EXTT1=
EXTT2=
EXTT3=
EXTT4=
EXTT5=
EXTT6=
EXTT7=
EXTT8=
EXTT9=
EXTT10=
EXTT11=
EXTT12=
EXTT13=
EXTT14=
EXTT15=
EXTT16=
EXTT17=
EXTT18=
EXTT19=
EXTT20=
EXTT21=
EXTT22=
EXTT23=
EXTT24=
EXTT25=
EXTT26=
EXTT27=
EXTT28=
EXTT29=
PLAYORDER=
